<svg xmlns="http://www.w3.org/2000/svg" xmlns:xlink="http://www.w3.org/1999/xlink" width="60" zoomAndPan="magnify" viewBox="0 0 45 44.999999" height="60" preserveAspectRatio="xMidYMid meet" version="1.0"><defs><clipPath id="id1"><path d="M 0.449219 0.449219 L 44.699219 0.449219 L 44.699219 44.699219 L 0.449219 44.699219 Z M 0.449219 0.449219 " clip-rule="nonzero"/></clipPath><clipPath id="id2"><path d="M 2.726562 2.65625 L 42.476562 2.65625 L 42.476562 42.40625 L 2.726562 42.40625 Z M 2.726562 2.65625 " clip-rule="nonzero"/></clipPath></defs><g clip-path="url(#id1)"><path fill="#113b5d" d="M 22.574219 0.449219 C 10.355469 0.449219 0.449219 10.355469 0.449219 22.574219 C 0.449219 34.792969 10.355469 44.699219 22.574219 44.699219 C 34.792969 44.699219 44.699219 34.792969 44.699219 22.574219 C 44.699219 10.355469 34.792969 0.449219 22.574219 0.449219 " fill-opacity="1" fill-rule="nonzero"/></g><g clip-path="url(#id2)"><path fill="#d9d9d9" d="M 42.445312 16.246094 C 42.4375 16.199219 42.429688 16.148438 42.417969 16.101562 C 42.410156 16.074219 42.398438 16.046875 42.390625 16.019531 C 42.378906 15.976562 42.363281 15.9375 42.347656 15.894531 C 42.332031 15.867188 42.320312 15.839844 42.308594 15.8125 C 42.289062 15.773438 42.273438 15.738281 42.25 15.699219 C 42.234375 15.671875 42.21875 15.648438 42.199219 15.621094 C 42.179688 15.585938 42.152344 15.550781 42.128906 15.519531 C 42.109375 15.492188 42.089844 15.46875 42.070312 15.445312 C 42.042969 15.414062 42.015625 15.382812 41.984375 15.351562 C 41.960938 15.332031 41.941406 15.308594 41.917969 15.285156 C 41.886719 15.257812 41.855469 15.230469 41.820312 15.207031 C 41.796875 15.1875 41.769531 15.164062 41.742188 15.148438 C 41.734375 15.140625 41.726562 15.132812 41.714844 15.125 L 23.546875 3.058594 C 22.976562 2.675781 22.226562 2.675781 21.65625 3.058594 L 3.488281 15.125 C 3.476562 15.132812 3.46875 15.140625 3.457031 15.148438 C 3.433594 15.164062 3.40625 15.183594 3.382812 15.203125 C 3.347656 15.230469 3.316406 15.257812 3.285156 15.285156 C 3.261719 15.304688 3.238281 15.328125 3.214844 15.351562 C 3.1875 15.382812 3.160156 15.410156 3.132812 15.445312 C 3.109375 15.46875 3.089844 15.492188 3.074219 15.519531 C 3.046875 15.550781 3.023438 15.585938 3 15.621094 C 2.984375 15.648438 2.96875 15.671875 2.953125 15.699219 C 2.929688 15.738281 2.910156 15.777344 2.894531 15.8125 C 2.882812 15.839844 2.867188 15.867188 2.855469 15.894531 C 2.839844 15.9375 2.824219 15.976562 2.8125 16.019531 C 2.800781 16.046875 2.792969 16.074219 2.785156 16.097656 C 2.773438 16.144531 2.765625 16.195312 2.753906 16.242188 C 2.75 16.265625 2.746094 16.289062 2.742188 16.316406 C 2.730469 16.390625 2.726562 16.464844 2.726562 16.539062 L 2.726562 28.609375 C 2.726562 28.683594 2.730469 28.757812 2.742188 28.832031 C 2.746094 28.859375 2.753906 28.878906 2.757812 28.90625 C 2.765625 28.953125 2.773438 29 2.789062 29.050781 C 2.796875 29.074219 2.808594 29.101562 2.816406 29.132812 C 2.832031 29.175781 2.84375 29.214844 2.859375 29.257812 C 2.871094 29.28125 2.886719 29.308594 2.898438 29.335938 C 2.914062 29.375 2.933594 29.410156 2.957031 29.449219 C 2.972656 29.476562 2.988281 29.503906 3.003906 29.527344 C 3.027344 29.566406 3.054688 29.597656 3.078125 29.628906 C 3.097656 29.65625 3.117188 29.675781 3.140625 29.703125 C 3.167969 29.734375 3.191406 29.765625 3.222656 29.796875 C 3.246094 29.816406 3.265625 29.84375 3.292969 29.859375 C 3.324219 29.886719 3.359375 29.914062 3.390625 29.941406 C 3.417969 29.960938 3.445312 29.976562 3.464844 29.996094 C 3.476562 30.003906 3.480469 30.015625 3.492188 30.019531 L 21.65625 42.09375 C 21.941406 42.285156 22.269531 42.382812 22.601562 42.378906 C 22.933594 42.378906 23.261719 42.285156 23.546875 42.09375 L 41.714844 30.027344 C 41.726562 30.019531 41.734375 30.011719 41.742188 30.003906 C 41.773438 29.984375 41.796875 29.96875 41.820312 29.945312 C 41.855469 29.921875 41.886719 29.894531 41.917969 29.863281 C 41.941406 29.84375 41.964844 29.820312 41.988281 29.800781 C 42.015625 29.769531 42.042969 29.738281 42.070312 29.707031 C 42.089844 29.683594 42.113281 29.660156 42.128906 29.632812 C 42.15625 29.601562 42.179688 29.566406 42.203125 29.53125 C 42.21875 29.503906 42.234375 29.476562 42.25 29.453125 C 42.273438 29.414062 42.292969 29.378906 42.308594 29.339844 C 42.324219 29.3125 42.335938 29.285156 42.347656 29.257812 C 42.363281 29.214844 42.378906 29.171875 42.390625 29.132812 C 42.402344 29.105469 42.410156 29.078125 42.417969 29.050781 C 42.429688 29.003906 42.4375 28.953125 42.449219 28.90625 C 42.453125 28.882812 42.460938 28.859375 42.460938 28.832031 C 42.472656 28.757812 42.476562 28.6875 42.476562 28.609375 L 42.476562 16.542969 C 42.476562 16.464844 42.46875 16.394531 42.460938 16.320312 C 42.457031 16.292969 42.449219 16.273438 42.445312 16.246094 Z M 22.601562 26.601562 L 16.558594 22.574219 L 22.601562 18.550781 L 28.640625 22.574219 Z M 20.894531 15.59375 L 13.488281 20.527344 L 7.511719 16.542969 L 20.894531 7.652344 Z M 10.417969 22.574219 L 6.144531 25.421875 L 6.144531 19.726562 Z M 13.488281 24.625 L 20.894531 29.558594 L 20.894531 37.5 L 7.511719 28.605469 Z M 24.308594 29.558594 L 31.714844 24.625 L 37.691406 28.605469 L 24.308594 37.496094 Z M 34.785156 22.574219 L 39.058594 19.726562 L 39.058594 25.425781 Z M 31.714844 20.527344 L 24.308594 15.59375 L 24.308594 7.652344 L 37.691406 16.542969 Z M 31.714844 20.527344 " fill-opacity="1" fill-rule="nonzero"/></g></svg>