<svg xmlns="http://www.w3.org/2000/svg" xmlns:xlink="http://www.w3.org/1999/xlink" width="60" zoomAndPan="magnify" viewBox="0 0 45 44.999999" height="60" preserveAspectRatio="xMidYMid meet" version="1.0"><defs><clipPath id="id1"><path d="M 0.523438 0.523438 L 44.773438 0.523438 L 44.773438 44.773438 L 0.523438 44.773438 Z M 0.523438 0.523438 " clip-rule="nonzero"/></clipPath><clipPath id="id2"><path d="M 13 9 L 33 9 L 33 44.773438 L 13 44.773438 Z M 13 9 " clip-rule="nonzero"/></clipPath></defs><g clip-path="url(#id1)"><path fill="#1877f2" d="M 44.773438 22.648438 C 44.773438 10.429688 34.871094 0.523438 22.648438 0.523438 C 10.429688 0.523438 0.523438 10.429688 0.523438 22.648438 C 0.523438 33.691406 8.617188 42.847656 19.191406 44.507812 L 19.191406 29.046875 L 13.574219 29.046875 L 13.574219 22.648438 L 19.191406 22.648438 L 19.191406 17.777344 C 19.191406 12.230469 22.496094 9.167969 27.550781 9.167969 C 29.96875 9.167969 32.503906 9.601562 32.503906 9.601562 L 32.503906 15.042969 L 29.710938 15.042969 C 26.964844 15.042969 26.105469 16.75 26.105469 18.5 L 26.105469 22.648438 L 32.242188 22.648438 L 31.261719 29.046875 L 26.105469 29.046875 L 26.105469 44.507812 C 36.683594 42.847656 44.773438 33.691406 44.773438 22.648438 " fill-opacity="1" fill-rule="nonzero"/></g><g clip-path="url(#id2)"><path fill="#ffffff" d="M 31.261719 29.046875 L 32.242188 22.648438 L 26.105469 22.648438 L 26.105469 18.5 C 26.105469 16.75 26.964844 15.042969 29.710938 15.042969 L 32.503906 15.042969 L 32.503906 9.601562 C 32.503906 9.601562 29.96875 9.167969 27.550781 9.167969 C 22.496094 9.167969 19.191406 12.230469 19.191406 17.777344 L 19.191406 22.648438 L 13.574219 22.648438 L 13.574219 29.046875 L 19.191406 29.046875 L 19.191406 44.507812 C 20.320312 44.683594 21.472656 44.773438 22.648438 44.773438 C 23.824219 44.773438 24.980469 44.683594 26.105469 44.507812 L 26.105469 29.046875 L 31.261719 29.046875 " fill-opacity="1" fill-rule="nonzero"/></g></svg>