<svg xmlns="http://www.w3.org/2000/svg" xmlns:xlink="http://www.w3.org/1999/xlink" width="60" zoomAndPan="magnify" viewBox="0 0 45 44.999999" height="60" preserveAspectRatio="xMidYMid meet" version="1.0"><defs><clipPath id="id1"><path d="M 1 1.410156 L 44 1.410156 L 44 43.410156 L 1 43.410156 Z M 1 1.410156 " clip-rule="nonzero"/></clipPath></defs><g clip-path="url(#id1)"><path fill="#0072ff" d="M 29.25 43.175781 C 30.046875 42.910156 30.828125 42.601562 31.589844 42.242188 C 32.351562 41.886719 33.089844 41.484375 33.804688 41.042969 C 34.515625 40.597656 35.203125 40.113281 35.859375 39.589844 C 36.515625 39.066406 37.140625 38.503906 37.730469 37.90625 C 38.324219 37.308594 38.875 36.679688 39.394531 36.015625 C 39.910156 35.355469 40.386719 34.664062 40.820312 33.945312 C 41.257812 33.226562 41.648438 32.484375 41.996094 31.722656 C 42.34375 30.957031 42.644531 30.175781 42.902344 29.375 C 43.15625 28.574219 43.367188 27.765625 43.527344 26.941406 C 43.6875 26.117188 43.796875 25.285156 43.859375 24.449219 C 43.921875 23.609375 43.933594 22.773438 43.898438 21.933594 C 43.859375 21.09375 43.773438 20.261719 43.640625 19.433594 C 43.503906 18.605469 43.320312 17.785156 43.089844 16.980469 C 42.859375 16.171875 42.582031 15.382812 42.257812 14.605469 C 41.933594 13.832031 41.5625 13.078125 41.152344 12.347656 C 40.738281 11.617188 40.28125 10.914062 39.785156 10.234375 C 39.289062 9.558594 38.753906 8.910156 38.183594 8.296875 C 37.609375 7.679688 37.003906 7.101562 36.363281 6.558594 C 35.722656 6.011719 35.050781 5.507812 34.351562 5.042969 C 33.652344 4.578125 32.925781 4.15625 32.175781 3.773438 C 31.425781 3.394531 30.65625 3.058594 29.867188 2.769531 C 29.078125 2.480469 28.273438 2.238281 27.457031 2.042969 C 26.636719 1.847656 25.808594 1.699219 24.976562 1.601562 C 24.140625 1.503906 23.300781 1.453125 22.460938 1.453125 C 21.617188 1.453125 20.78125 1.503906 19.945312 1.601562 C 19.109375 1.699219 18.28125 1.847656 17.464844 2.042969 C 16.644531 2.238281 15.84375 2.480469 15.054688 2.769531 C 14.261719 3.058594 13.492188 3.394531 12.742188 3.773438 C 11.992188 4.15625 11.269531 4.578125 10.566406 5.042969 C 9.867188 5.507812 9.195312 6.011719 8.554688 6.558594 C 7.914062 7.101562 7.308594 7.679688 6.738281 8.296875 C 6.164062 8.910156 5.628906 9.558594 5.132812 10.234375 C 4.636719 10.914062 4.183594 11.617188 3.769531 12.347656 C 3.355469 13.078125 2.988281 13.832031 2.664062 14.605469 C 2.339844 15.382812 2.058594 16.171875 1.828125 16.980469 C 1.597656 17.785156 1.414062 18.605469 1.28125 19.433594 C 1.144531 20.261719 1.058594 21.09375 1.023438 21.933594 C 0.984375 22.773438 1 23.609375 1.0625 24.449219 C 1.125 25.285156 1.234375 26.117188 1.394531 26.941406 C 1.554688 27.765625 1.761719 28.578125 2.019531 29.375 C 2.273438 30.175781 2.574219 30.957031 2.921875 31.722656 C 3.273438 32.484375 3.664062 33.226562 4.097656 33.945312 C 4.535156 34.664062 5.011719 35.355469 5.527344 36.015625 C 6.042969 36.679688 6.597656 37.308594 7.1875 37.90625 C 7.777344 38.503906 8.402344 39.066406 9.058594 39.589844 C 9.71875 40.113281 10.402344 40.597656 11.117188 41.042969 C 11.832031 41.484375 12.570312 41.886719 13.332031 42.242188 C 14.089844 42.601562 14.871094 42.910156 15.667969 43.175781 C 16.746094 43.375 17.132812 42.710938 17.132812 42.140625 C 17.132812 41.753906 17.132812 40.894531 17.132812 39.730469 C 17.128906 39.578125 17.09375 39.429688 17.03125 39.292969 C 16.964844 39.152344 16.875 39.03125 16.757812 38.929688 C 16.640625 38.832031 16.507812 38.757812 16.363281 38.714844 C 16.214844 38.667969 16.0625 38.65625 15.910156 38.675781 C 10.976562 39.203125 9.890625 35.59375 9.890625 35.59375 C 8.914062 33.117188 7.507812 32.453125 7.507812 32.453125 C 5.558594 31.121094 7.648438 31.148438 7.648438 31.148438 C 8.339844 31.242188 8.972656 31.484375 9.550781 31.875 C 10.128906 32.265625 10.589844 32.761719 10.933594 33.367188 C 11.1875 33.859375 11.523438 34.289062 11.941406 34.652344 C 12.363281 35.019531 12.832031 35.296875 13.355469 35.484375 C 13.878906 35.671875 14.417969 35.757812 14.972656 35.742188 C 15.53125 35.726562 16.0625 35.609375 16.574219 35.390625 C 16.957031 35.25 17.191406 34.984375 17.273438 34.582031 C 17.351562 34.238281 17.464844 33.90625 17.605469 33.582031 C 17.679688 33.429688 17.71875 33.269531 17.71875 33.097656 C 17.71875 32.929688 17.679688 32.769531 17.605469 32.617188 C 17.53125 32.464844 17.425781 32.335938 17.292969 32.234375 C 17.160156 32.128906 17.011719 32.058594 16.84375 32.023438 C 12.65625 31.210938 8.769531 28.917969 8.769531 21.65625 C 8.746094 19.839844 9.257812 18.191406 10.3125 16.707031 C 10.714844 16.167969 10.839844 15.574219 10.699219 14.917969 C 10.496094 13.902344 10.496094 12.886719 10.699219 11.875 C 10.753906 11.601562 10.859375 11.351562 11.019531 11.125 C 11.179688 10.898438 11.378906 10.710938 11.617188 10.570312 C 11.855469 10.425781 12.113281 10.335938 12.390625 10.300781 C 12.664062 10.269531 12.9375 10.289062 13.203125 10.371094 C 14.304688 10.730469 15.34375 11.226562 16.316406 11.855469 C 16.859375 12.179688 17.4375 12.269531 18.054688 12.125 C 21 11.46875 23.945312 11.46875 26.890625 12.125 C 27.507812 12.269531 28.089844 12.179688 28.632812 11.855469 C 29.578125 11.242188 30.585938 10.757812 31.65625 10.398438 C 31.933594 10.3125 32.222656 10.289062 32.511719 10.328125 C 32.804688 10.367188 33.074219 10.464844 33.320312 10.621094 C 33.570312 10.777344 33.773438 10.980469 33.933594 11.222656 C 34.09375 11.46875 34.195312 11.738281 34.238281 12.027344 C 34.425781 13 34.425781 13.972656 34.238281 14.945312 C 34.097656 15.597656 34.226562 16.195312 34.625 16.734375 C 35.679688 18.21875 36.191406 19.867188 36.167969 21.683594 C 36.167969 28.960938 32.273438 31.234375 28.09375 32.042969 C 27.929688 32.074219 27.78125 32.140625 27.644531 32.238281 C 27.511719 32.339844 27.40625 32.464844 27.332031 32.613281 C 27.253906 32.761719 27.214844 32.917969 27.210938 33.085938 C 27.207031 33.253906 27.242188 33.410156 27.3125 33.5625 C 27.6875 34.417969 27.867188 35.316406 27.851562 36.25 L 27.851562 42.148438 C 27.851562 42.148438 28.15625 43.355469 29.25 43.175781 Z M 29.25 43.175781 " fill-opacity="1" fill-rule="nonzero"/></g></svg>