<svg xmlns="http://www.w3.org/2000/svg" xmlns:xlink="http://www.w3.org/1999/xlink" width="60" zoomAndPan="magnify" viewBox="0 0 45 44.999999" height="60" preserveAspectRatio="xMidYMid meet" version="1.0"><defs><clipPath id="id1"><path d="M 0.523438 0.523438 L 44.773438 0.523438 L 44.773438 44.773438 L 0.523438 44.773438 Z M 0.523438 0.523438 " clip-rule="nonzero"/></clipPath></defs><g clip-path="url(#id1)"><path fill="#ffffff" d="M 44.773438 22.648438 C 44.773438 23.375 44.738281 24.097656 44.667969 24.820312 C 44.597656 25.539062 44.492188 26.253906 44.351562 26.964844 C 44.207031 27.675781 44.03125 28.378906 43.824219 29.074219 C 43.613281 29.765625 43.367188 30.449219 43.089844 31.117188 C 42.8125 31.785156 42.503906 32.441406 42.164062 33.078125 C 41.820312 33.71875 41.449219 34.339844 41.046875 34.941406 C 40.644531 35.542969 40.210938 36.125 39.753906 36.6875 C 39.292969 37.246094 38.808594 37.78125 38.292969 38.292969 C 37.78125 38.808594 37.246094 39.292969 36.6875 39.753906 C 36.125 40.210938 35.542969 40.644531 34.941406 41.046875 C 34.339844 41.449219 33.71875 41.820312 33.078125 42.164062 C 32.441406 42.503906 31.785156 42.8125 31.117188 43.089844 C 30.449219 43.367188 29.765625 43.613281 29.074219 43.824219 C 28.378906 44.03125 27.675781 44.207031 26.964844 44.351562 C 26.253906 44.492188 25.539062 44.597656 24.820312 44.667969 C 24.097656 44.738281 23.375 44.773438 22.648438 44.773438 C 21.925781 44.773438 21.203125 44.738281 20.480469 44.667969 C 19.761719 44.597656 19.042969 44.492188 18.332031 44.351562 C 17.621094 44.207031 16.921875 44.03125 16.226562 43.824219 C 15.535156 43.613281 14.851562 43.367188 14.183594 43.089844 C 13.511719 42.8125 12.859375 42.503906 12.21875 42.164062 C 11.582031 41.820312 10.960938 41.449219 10.359375 41.046875 C 9.753906 40.644531 9.175781 40.210938 8.613281 39.753906 C 8.054688 39.292969 7.519531 38.808594 7.003906 38.292969 C 6.492188 37.78125 6.007812 37.246094 5.546875 36.6875 C 5.085938 36.125 4.65625 35.542969 4.253906 34.941406 C 3.851562 34.339844 3.480469 33.71875 3.136719 33.078125 C 2.796875 32.441406 2.488281 31.785156 2.210938 31.117188 C 1.933594 30.449219 1.6875 29.765625 1.476562 29.074219 C 1.265625 28.378906 1.089844 27.675781 0.949219 26.964844 C 0.808594 26.253906 0.703125 25.539062 0.632812 24.820312 C 0.558594 24.097656 0.523438 23.375 0.523438 22.648438 C 0.523438 21.925781 0.558594 21.203125 0.632812 20.480469 C 0.703125 19.761719 0.808594 19.042969 0.949219 18.332031 C 1.089844 17.621094 1.265625 16.921875 1.476562 16.226562 C 1.6875 15.535156 1.933594 14.851562 2.210938 14.183594 C 2.488281 13.511719 2.796875 12.859375 3.136719 12.21875 C 3.480469 11.582031 3.851562 10.960938 4.253906 10.359375 C 4.65625 9.753906 5.085938 9.175781 5.546875 8.613281 C 6.007812 8.054688 6.492188 7.519531 7.003906 7.003906 C 7.519531 6.492188 8.054688 6.007812 8.613281 5.546875 C 9.175781 5.085938 9.753906 4.65625 10.359375 4.253906 C 10.960938 3.851562 11.582031 3.480469 12.21875 3.136719 C 12.859375 2.796875 13.511719 2.488281 14.183594 2.210938 C 14.851562 1.933594 15.535156 1.6875 16.226562 1.476562 C 16.921875 1.265625 17.621094 1.089844 18.332031 0.949219 C 19.042969 0.808594 19.761719 0.703125 20.480469 0.632812 C 21.203125 0.558594 21.925781 0.523438 22.648438 0.523438 C 23.375 0.523438 24.097656 0.558594 24.820312 0.632812 C 25.539062 0.703125 26.253906 0.808594 26.964844 0.949219 C 27.675781 1.089844 28.378906 1.265625 29.074219 1.476562 C 29.765625 1.6875 30.449219 1.933594 31.117188 2.210938 C 31.785156 2.488281 32.441406 2.796875 33.078125 3.136719 C 33.71875 3.480469 34.339844 3.851562 34.941406 4.253906 C 35.542969 4.65625 36.125 5.085938 36.6875 5.546875 C 37.246094 6.007812 37.78125 6.492188 38.292969 7.003906 C 38.808594 7.519531 39.292969 8.054688 39.753906 8.613281 C 40.210938 9.175781 40.644531 9.753906 41.046875 10.359375 C 41.449219 10.960938 41.820312 11.582031 42.164062 12.21875 C 42.503906 12.859375 42.8125 13.511719 43.089844 14.183594 C 43.367188 14.851562 43.613281 15.535156 43.824219 16.226562 C 44.03125 16.921875 44.207031 17.621094 44.351562 18.332031 C 44.492188 19.042969 44.597656 19.761719 44.667969 20.480469 C 44.738281 21.203125 44.773438 21.925781 44.773438 22.648438 Z M 44.773438 22.648438 " fill-opacity="1" fill-rule="nonzero"/></g><path fill="#ffffff" d="M 18.757812 10.113281 C 15.539062 11.234375 12.765625 13.621094 11.234375 16.691406 C 10.703125 17.753906 10.320312 18.84375 10.082031 20.023438 C 9.492188 22.914062 9.90625 25.984375 11.234375 28.609375 C 12.089844 30.320312 13.328125 31.855469 14.832031 33.035156 C 16.25 34.15625 17.902344 35.011719 19.640625 35.453125 C 21.851562 36.042969 24.214844 36.011719 26.425781 35.511719 C 28.433594 35.039062 30.347656 34.097656 31.882812 32.679688 C 33.507812 31.203125 34.628906 29.257812 35.246094 27.164062 C 35.894531 24.890625 35.984375 22.445312 35.570312 20.113281 C 31.410156 20.113281 27.253906 20.113281 23.09375 20.113281 C 23.09375 21.851562 23.09375 23.566406 23.09375 25.304688 C 25.511719 25.304688 27.902344 25.304688 30.320312 25.304688 C 30.054688 26.957031 29.050781 28.492188 27.664062 29.40625 C 26.78125 29.996094 25.777344 30.378906 24.746094 30.554688 C 23.710938 30.734375 22.621094 30.761719 21.558594 30.554688 C 20.496094 30.347656 19.492188 29.90625 18.609375 29.257812 C 17.191406 28.253906 16.101562 26.808594 15.570312 25.1875 C 15.007812 23.535156 15.007812 21.675781 15.570312 20.023438 C 15.984375 18.875 16.632812 17.78125 17.488281 16.898438 C 18.550781 15.804688 19.9375 15.007812 21.46875 14.683594 C 22.769531 14.417969 24.09375 14.449219 25.363281 14.832031 C 26.425781 15.15625 27.398438 15.746094 28.226562 16.515625 C 29.050781 15.6875 29.847656 14.890625 30.675781 14.066406 C 31.117188 13.621094 31.558594 13.210938 31.972656 12.765625 C 30.734375 11.617188 29.289062 10.703125 27.695312 10.113281 C 24.832031 9.140625 21.648438 9.109375 18.757812 10.113281 Z M 18.757812 10.113281 " fill-opacity="1" fill-rule="nonzero"/><path fill="#ea4335" d="M 18.757812 10.140625 C 21.617188 9.167969 24.832031 9.167969 27.695312 10.230469 C 29.257812 10.820312 30.734375 11.707031 31.941406 12.886719 C 31.53125 13.328125 31.085938 13.742188 30.675781 14.183594 C 29.847656 15.007812 29.050781 15.804688 28.226562 16.632812 C 27.429688 15.863281 26.457031 15.273438 25.363281 14.949219 C 24.125 14.566406 22.738281 14.507812 21.46875 14.804688 C 19.996094 15.128906 18.578125 15.925781 17.515625 17.015625 C 16.660156 17.902344 15.984375 18.960938 15.597656 20.140625 C 14.152344 19.023438 12.707031 17.902344 11.261719 16.78125 C 12.796875 13.652344 15.539062 11.234375 18.757812 10.140625 Z M 18.757812 10.140625 " fill-opacity="1" fill-rule="nonzero"/><path fill="#fbbc05" d="M 10.113281 20.023438 C 10.347656 18.875 10.730469 17.753906 11.261719 16.691406 C 12.707031 17.8125 14.152344 18.933594 15.597656 20.054688 C 15.039062 21.707031 15.039062 23.566406 15.597656 25.214844 C 14.152344 26.335938 12.707031 27.457031 11.261719 28.578125 C 9.933594 25.984375 9.523438 22.914062 10.113281 20.023438 Z M 10.113281 20.023438 " fill-opacity="1" fill-rule="nonzero"/><path fill="#4285f4" d="M 23.09375 20.171875 C 27.253906 20.171875 31.410156 20.171875 35.570312 20.171875 C 35.984375 22.503906 35.894531 24.921875 35.246094 27.191406 C 34.628906 29.289062 33.507812 31.203125 31.882812 32.710938 C 30.46875 31.617188 29.082031 30.527344 27.664062 29.433594 C 29.050781 28.492188 30.023438 26.988281 30.320312 25.335938 C 27.902344 25.335938 25.511719 25.335938 23.09375 25.335938 C 23.09375 23.625 23.09375 21.882812 23.09375 20.171875 Z M 23.09375 20.171875 " fill-opacity="1" fill-rule="nonzero"/><path fill="#34a853" d="M 11.261719 28.609375 C 12.707031 27.488281 14.152344 26.367188 15.597656 25.246094 C 16.160156 26.867188 17.222656 28.3125 18.636719 29.316406 C 19.523438 29.9375 20.527344 30.378906 21.589844 30.585938 C 22.621094 30.792969 23.710938 30.761719 24.746094 30.585938 C 25.777344 30.410156 26.78125 30.023438 27.664062 29.433594 C 29.082031 30.527344 30.46875 31.617188 31.882812 32.710938 C 30.347656 34.125 28.460938 35.070312 26.457031 35.542969 C 24.242188 36.042969 21.882812 36.074219 19.671875 35.484375 C 17.929688 35.011719 16.277344 34.183594 14.863281 33.0625 C 13.359375 31.855469 12.117188 30.289062 11.261719 28.609375 Z M 11.261719 28.609375 " fill-opacity="1" fill-rule="nonzero"/></svg>