<svg xmlns="http://www.w3.org/2000/svg" xmlns:xlink="http://www.w3.org/1999/xlink" width="60" zoomAndPan="magnify" viewBox="0 0 45 44.999999" height="60" preserveAspectRatio="xMidYMid meet" version="1.0"><defs><clipPath id="id1"><path d="M 0.375 0.375 L 44.625 0.375 L 44.625 44.625 L 0.375 44.625 Z M 0.375 0.375 " clip-rule="nonzero"/></clipPath><clipPath id="id2"><path d="M 9.953125 13.917969 L 27.203125 13.917969 L 27.203125 31.167969 L 9.953125 31.167969 Z M 9.953125 13.917969 " clip-rule="nonzero"/></clipPath><clipPath id="id3"><path d="M 5.625 12.359375 L 42 12.359375 L 42 34.859375 L 5.625 34.859375 Z M 5.625 12.359375 " clip-rule="nonzero"/></clipPath></defs><g clip-path="url(#id1)"><path fill="#1877f2" d="M 22.5 0.375 C 10.28125 0.375 0.375 10.28125 0.375 22.5 C 0.375 34.71875 10.28125 44.625 22.5 44.625 C 34.71875 44.625 44.625 34.71875 44.625 22.5 C 44.625 10.28125 34.71875 0.375 22.5 0.375 " fill-opacity="1" fill-rule="nonzero"/></g><g clip-path="url(#id2)"><path fill="#f12316" d="M 18.578125 13.917969 C 13.8125 13.917969 9.953125 17.777344 9.953125 22.542969 C 9.953125 27.304688 13.8125 31.167969 18.578125 31.167969 C 23.339844 31.167969 27.203125 27.304688 27.203125 22.542969 C 27.203125 17.777344 23.339844 13.917969 18.578125 13.917969 " fill-opacity="1" fill-rule="nonzero"/></g><g clip-path="url(#id3)"><path fill="#d9d9d9" d="M 9.761719 34.859375 C 9.761719 34.859375 22.164062 34.824219 27.710938 34.789062 C 31.367188 34.160156 31.734375 31.011719 31.699219 29.292969 C 38.226562 29.644531 42.832031 25.128906 41.671875 19.117188 C 40.511719 13.105469 34.382812 12.359375 34.382812 12.359375 L 6.933594 12.359375 C 6.027344 12.359375 5.914062 13.535156 5.914062 13.535156 C 5.914062 13.535156 5.792969 24.308594 5.882812 30.929688 C 6.128906 34.496094 9.761719 34.859375 9.761719 34.859375 Z M 31.816406 16.667969 L 34.46875 16.667969 C 34.46875 16.667969 37.425781 17.480469 37.425781 20.550781 C 37.425781 23.367188 35.949219 24.476562 34.339844 24.988281 C 32.945312 25.160156 31.816406 25.027344 31.816406 25.027344 Z M 12.246094 18.757812 C 13.675781 17.273438 16.753906 17.160156 18.792969 19.359375 C 18.792969 19.359375 21.140625 16.734375 23.992188 17.941406 C 26.851562 19.144531 26.742188 22.371094 25.078125 24.285156 C 23.210938 26.421875 19.0625 30.132812 19.0625 30.132812 C 19.0625 30.132812 18.878906 30.308594 18.597656 30.167969 C 18.484375 30.085938 18.433594 30.035156 18.433594 30.035156 C 17.769531 29.386719 13.382812 25.550781 12.382812 24.21875 C 11.320312 22.796875 10.824219 20.246094 12.246094 18.757812 Z M 12.246094 18.757812 " fill-opacity="1" fill-rule="nonzero"/></g></svg>