<svg xmlns="http://www.w3.org/2000/svg" xmlns:xlink="http://www.w3.org/1999/xlink" width="60" zoomAndPan="magnify" viewBox="0 0 45 44.999999" height="60" preserveAspectRatio="xMidYMid meet" version="1.0"><defs><clipPath id="id1"><path d="M 0 0.546875 L 45 0.546875 L 45 44.796875 L 0 44.796875 Z M 0 0.546875 " clip-rule="nonzero"/></clipPath></defs><g clip-path="url(#id1)"><path fill="#0288d1" d="M 22.671875 0.546875 C 21.949219 0.546875 21.230469 0.582031 20.511719 0.65625 C 19.792969 0.726562 19.078125 0.832031 18.371094 0.972656 C 17.660156 1.113281 16.960938 1.289062 16.269531 1.5 C 15.578125 1.707031 14.898438 1.953125 14.230469 2.226562 C 13.5625 2.503906 12.910156 2.8125 12.273438 3.15625 C 11.636719 3.496094 11.019531 3.867188 10.417969 4.269531 C 9.816406 4.667969 9.238281 5.097656 8.679688 5.558594 C 8.121094 6.015625 7.585938 6.5 7.074219 7.011719 C 6.5625 7.523438 6.078125 8.058594 5.621094 8.617188 C 5.160156 9.175781 4.730469 9.757812 4.332031 10.355469 C 3.929688 10.957031 3.558594 11.578125 3.21875 12.214844 C 2.875 12.851562 2.566406 13.503906 2.292969 14.171875 C 2.015625 14.839844 1.773438 15.519531 1.5625 16.210938 C 1.351562 16.902344 1.175781 17.605469 1.035156 18.3125 C 0.894531 19.023438 0.789062 19.734375 0.71875 20.453125 C 0.648438 21.175781 0.613281 21.894531 0.613281 22.617188 C 0.613281 23.339844 0.648438 24.0625 0.71875 24.78125 C 0.789062 25.5 0.894531 26.214844 1.035156 26.925781 C 1.175781 27.632812 1.351562 28.332031 1.5625 29.023438 C 1.773438 29.714844 2.015625 30.394531 2.292969 31.0625 C 2.566406 31.730469 2.875 32.382812 3.21875 33.023438 C 3.558594 33.660156 3.929688 34.277344 4.332031 34.878906 C 4.730469 35.480469 5.160156 36.058594 5.621094 36.621094 C 6.078125 37.179688 6.5625 37.710938 7.074219 38.222656 C 7.585938 38.734375 8.121094 39.21875 8.679688 39.679688 C 9.238281 40.136719 9.816406 40.566406 10.417969 40.96875 C 11.019531 41.371094 11.636719 41.742188 12.273438 42.082031 C 12.910156 42.421875 13.5625 42.730469 14.230469 43.007812 C 14.898438 43.285156 15.578125 43.527344 16.269531 43.738281 C 16.960938 43.949219 17.660156 44.121094 18.371094 44.265625 C 19.078125 44.40625 19.792969 44.511719 20.511719 44.582031 C 21.230469 44.652344 21.949219 44.6875 22.671875 44.6875 C 23.394531 44.6875 24.117188 44.652344 24.835938 44.582031 C 25.554688 44.511719 26.269531 44.40625 26.976562 44.265625 C 27.6875 44.121094 28.386719 43.949219 29.078125 43.738281 C 29.769531 43.527344 30.449219 43.285156 31.117188 43.007812 C 31.785156 42.730469 32.4375 42.421875 33.074219 42.082031 C 33.710938 41.742188 34.328125 41.371094 34.929688 40.96875 C 35.53125 40.566406 36.109375 40.136719 36.667969 39.679688 C 37.226562 39.21875 37.761719 38.734375 38.273438 38.222656 C 38.785156 37.710938 39.269531 37.179688 39.726562 36.621094 C 40.183594 36.058594 40.617188 35.480469 41.015625 34.878906 C 41.417969 34.277344 41.789062 33.660156 42.128906 33.023438 C 42.46875 32.382812 42.777344 31.730469 43.054688 31.0625 C 43.332031 30.394531 43.574219 29.714844 43.785156 29.023438 C 43.996094 28.332031 44.167969 27.632812 44.3125 26.925781 C 44.453125 26.214844 44.558594 25.5 44.628906 24.78125 C 44.699219 24.0625 44.734375 23.339844 44.734375 22.617188 C 44.734375 21.894531 44.699219 21.175781 44.628906 20.453125 C 44.558594 19.734375 44.453125 19.023438 44.3125 18.3125 C 44.167969 17.605469 43.996094 16.902344 43.785156 16.210938 C 43.574219 15.519531 43.332031 14.839844 43.054688 14.171875 C 42.777344 13.503906 42.46875 12.851562 42.128906 12.214844 C 41.789062 11.578125 41.417969 10.957031 41.015625 10.355469 C 40.617188 9.757812 40.183594 9.175781 39.726562 8.617188 C 39.269531 8.058594 38.785156 7.523438 38.273438 7.011719 C 37.761719 6.5 37.226562 6.015625 36.667969 5.558594 C 36.109375 5.097656 35.53125 4.667969 34.929688 4.269531 C 34.328125 3.867188 33.710938 3.496094 33.074219 3.15625 C 32.4375 2.8125 31.785156 2.503906 31.117188 2.226562 C 30.449219 1.953125 29.769531 1.707031 29.078125 1.5 C 28.386719 1.289062 27.6875 1.113281 26.976562 0.972656 C 26.269531 0.832031 25.554688 0.726562 24.835938 0.65625 C 24.117188 0.582031 23.394531 0.546875 22.671875 0.546875 Z M 22.671875 0.546875 " fill-opacity="1" fill-rule="nonzero"/></g><path fill="#ffffff" d="M 11.644531 17.101562 L 16.054688 17.101562 L 16.054688 33.652344 L 11.644531 33.652344 Z M 13.835938 14.894531 L 13.8125 14.894531 C 12.496094 14.894531 11.644531 13.910156 11.644531 12.6875 C 11.644531 11.433594 12.519531 10.480469 13.859375 10.480469 C 15.203125 10.480469 16.03125 11.433594 16.054688 12.6875 C 16.054688 13.910156 15.203125 14.894531 13.835938 14.894531 Z M 34.808594 23.171875 C 34.808594 19.816406 32.089844 17.101562 28.742188 17.101562 C 26.6875 17.101562 24.875 18.125 23.777344 19.6875 L 23.777344 17.101562 L 19.363281 17.101562 L 19.363281 33.652344 L 23.777344 33.652344 L 23.777344 24.824219 C 23.777344 22.996094 25.257812 21.515625 27.085938 21.515625 C 28.914062 21.515625 30.394531 22.996094 30.394531 24.824219 L 30.394531 33.652344 L 34.808594 33.652344 C 34.808594 33.652344 34.808594 23.632812 34.808594 23.171875 Z M 34.808594 23.171875 " fill-opacity="1" fill-rule="nonzero"/></svg>