<svg xmlns="http://www.w3.org/2000/svg" xmlns:xlink="http://www.w3.org/1999/xlink" width="60" zoomAndPan="magnify" viewBox="0 0 45 44.999999" height="60" preserveAspectRatio="xMidYMid meet" version="1.0"><defs><clipPath id="id1"><path d="M 0.75 0.75 L 44.25 0.75 L 44.25 44.25 L 0.75 44.25 Z M 0.75 0.75 " clip-rule="nonzero"/></clipPath><clipPath id="id2"><path d="M 17.246094 8.382812 L 37.859375 8.382812 L 37.859375 36.59375 L 17.246094 36.59375 Z M 17.246094 8.382812 " clip-rule="nonzero"/></clipPath><clipPath id="id3"><path d="M 7.234375 8.382812 L 17.191406 8.382812 L 17.191406 36.59375 L 7.234375 36.59375 Z M 7.234375 8.382812 " clip-rule="nonzero"/></clipPath></defs><g clip-path="url(#id1)"><path fill="#052d49" d="M 22.5 0.75 C 10.488281 0.75 0.75 10.488281 0.75 22.5 C 0.75 34.511719 10.488281 44.25 22.5 44.25 C 34.511719 44.25 44.25 34.511719 44.25 22.5 C 44.25 10.488281 34.511719 0.75 22.5 0.75 " fill-opacity="1" fill-rule="nonzero"/></g><g clip-path="url(#id2)"><path fill="#ffffff" d="M 7.171875 8.382812 L 7.171875 36.59375 L 15.429688 36.59375 L 15.429688 8.382812 Z M 27.820312 8.382812 C 22.289062 8.382812 17.789062 12.863281 17.789062 18.375 C 17.789062 23.882812 22.289062 28.363281 27.820312 28.363281 C 33.351562 28.363281 37.847656 23.882812 37.847656 18.375 C 37.847656 12.863281 33.351562 8.382812 27.820312 8.382812 Z M 9.53125 10.734375 L 13.070312 10.734375 L 13.070312 34.242188 L 9.53125 34.242188 Z M 27.820312 10.734375 C 32.050781 10.734375 35.488281 14.160156 35.488281 18.375 C 35.488281 22.585938 32.050781 26.015625 27.820312 26.015625 C 23.589844 26.015625 20.152344 22.585938 20.152344 18.375 C 20.152344 14.160156 23.589844 10.734375 27.820312 10.734375 Z M 27.820312 10.734375 " fill-opacity="1" fill-rule="nonzero"/></g><g clip-path="url(#id3)"><path fill="#f96854" d="M 7.242188 8.382812 L 7.242188 36.59375 L 15.503906 36.59375 L 15.503906 8.382812 Z M 27.894531 8.382812 C 22.363281 8.382812 17.863281 12.863281 17.863281 18.375 C 17.863281 23.882812 22.363281 28.363281 27.894531 28.363281 C 33.421875 28.363281 37.921875 23.882812 37.921875 18.375 C 37.921875 12.863281 33.421875 8.382812 27.894531 8.382812 Z M 9.605469 10.734375 L 13.144531 10.734375 L 13.144531 34.242188 L 9.605469 34.242188 Z M 27.894531 10.734375 C 32.121094 10.734375 35.5625 14.160156 35.5625 18.375 C 35.5625 22.585938 32.121094 26.015625 27.894531 26.015625 C 23.664062 26.015625 20.222656 22.585938 20.222656 18.375 C 20.222656 14.160156 23.664062 10.734375 27.894531 10.734375 Z M 27.894531 10.734375 " fill-opacity="1" fill-rule="nonzero"/></g></svg>